# xmcd CD database file
#
# Track frame offsets:
#	150
#	14399
#	27684
#	55547
#	72865
#	83465
#	103942
#	122893
#	134180
#	150963
#	164794
#	183094
#	194420
#	232351
#
# Disc length: 3403 seconds
#
# Revision: 2
# Processed by: cddbd v1.5.2PL0 Copyright (c) Steve Scherf et al.
# Submitted via: CDex 1.51
#
DISCID=c50d490e
DTITLE=Micah P. Hinson - And The Gospel Of Progress
DYEAR=2014
DGENRE=Americana, Country
TTITLE0=Close Your Eyes
TTITLE1=Beneath The Rose
TTITLE2=Don't You (Part 1 and 2)
TTITLE3=The Possibilities
TTITLE4=As You Can See
TTITLE5=At Least, Our Promises
TTITLE6=I Still Remember
TTITLE7=The Nothing
TTITLE8=Stand In My Way
TTITLE9=Patience
TTITLE10=You Lost Sight On Me
TTITLE11=Caught In Between
TTITLE12=The Day Texas Sank To The Bottom Of The Sea
TTITLE13=Can't Change A Thing
EXTD=YEAR: 2014
EXTT0=
EXTT1=
EXTT2=
EXTT3=
EXTT4=
EXTT5=
EXTT6=
EXTT7=
EXTT8=
EXTT9=
EXTT10=
EXTT11=
EXTT12=
EXTT13=
PLAYORDER=
